<svg xmlns="http://www.w3.org/2000/svg" viewBox="0 0 560 132" role="img" aria-labelledby="title desc">
  <title id="title">OneTap Creative</title>
  <desc id="desc">Gold touch icon with OneTap Creative wordmark</desc>
  <defs>
    <linearGradient id="gold" x1="0" y1="0" x2="1" y2="1">
      <stop offset="0" stop-color="#f7d66b"/><stop offset="0.48" stop-color="#d6ad3c"/><stop offset="1" stop-color="#9b701c"/>
    </linearGradient>
  </defs>
  <g transform="translate(7 6)">
    <circle cx="58" cy="58" r="48" fill="none" stroke="url(#gold)" stroke-width="5"/>
    <circle cx="58" cy="58" r="33" fill="none" stroke="url(#gold)" stroke-width="4" opacity=".9"/>
    <circle cx="58" cy="58" r="18" fill="none" stroke="url(#gold)" stroke-width="3" opacity=".8"/>
    <path d="M58 64v39M58 65c0-8 12-8 12 0v17M70 72c0-8 12-8 12 0v15M82 78c0-7 11-7 11 0v15c0 15-12 25-29 25-12 0-22-6-28-16l-10-17c-4-7 7-13 12-6l9 12V64c0-8 11-8 11 0z" fill="#fff" stroke="#fff" stroke-linejoin="round" stroke-linecap="round" stroke-width="2"/>
  </g>
  <text x="135" y="68" font-family="Arial, Helvetica, sans-serif" font-size="62" font-weight="800" fill="#fff">One</text>
  <text x="252" y="68" font-family="Arial, Helvetica, sans-serif" font-size="62" font-weight="800" fill="url(#gold)">Tap</text>
  <path d="M138 101h50M423 101h50" stroke="url(#gold)" stroke-width="3" stroke-linecap="round"/>
  <text x="201" y="108" font-family="Arial, Helvetica, sans-serif" font-size="23" font-weight="700" letter-spacing="8" fill="#fff">CREATIVE</text>
</svg>
